<svg xmlns="http://www.w3.org/2000/svg" width="980" height="265" viewBox="0 0 980 265" role="img" aria-labelledby="title desc">
<title id="title">Return principali CartPole</title>
<desc id="desc">Figura generata da dati sperimentali versionati nella cartella results.</desc>
<rect width="100%" height="100%" fill="#ffffff"/>
<style>text{font-family:Arial,sans-serif;fill:#182026;letter-spacing:0} .grid{stroke:#d8dee4;stroke-width:1} .axis{stroke:#59636e;stroke-width:1.2}</style>
<text x="490.0" y="32" text-anchor="middle" font-size="20" font-weight="700">Return principali CartPole</text>
<line class="grid" x1="330.0" y1="65" x2="330.0" y2="197"/>
<text x="330.0" y="219" text-anchor="middle" font-size="12">0.00</text>
<line class="grid" x1="449.0" y1="65" x2="449.0" y2="197"/>
<text x="449.0" y="219" text-anchor="middle" font-size="12">104.00</text>
<line class="grid" x1="568.0" y1="65" x2="568.0" y2="197"/>
<text x="568.0" y="219" text-anchor="middle" font-size="12">208.00</text>
<line class="grid" x1="687.0" y1="65" x2="687.0" y2="197"/>
<text x="687.0" y="219" text-anchor="middle" font-size="12">312.00</text>
<line class="grid" x1="806.0" y1="65" x2="806.0" y2="197"/>
<text x="806.0" y="219" text-anchor="middle" font-size="12">416.00</text>
<line class="grid" x1="925.0" y1="65" x2="925.0" y2="197"/>
<text x="925.0" y="219" text-anchor="middle" font-size="12">520.00</text>
<text x="318" y="91" text-anchor="end" font-size="13">REINFORCE</text>
<rect x="330" y="73" width="559.9" height="25" rx="3" fill="#176B87"/>
<text x="897.9" y="91" font-size="13" font-weight="700">489.3500</text>
<text x="318" y="135" text-anchor="end" font-size="13">Baseline di valore</text>
<rect x="330" y="117" width="572.1" height="25" rx="3" fill="#D1495B"/>
<text x="910.1" y="135" font-size="13" font-weight="700">500.0000</text>
<text x="318" y="179" text-anchor="end" font-size="13">A2C CartPole</text>
<rect x="330" y="161" width="565.8" height="25" rx="3" fill="#2E7D32"/>
<text x="903.8" y="179" font-size="13" font-weight="700">494.5100</text>
<line class="axis" x1="330" y1="197" x2="925" y2="197"/>
<text x="627.5" y="250" text-anchor="middle" font-size="14">Return medio di valutazione</text>
</svg>
