<svg xmlns="http://www.w3.org/2000/svg" width="980" height="600" viewBox="0 0 980 600" role="img" aria-labelledby="title desc">
<title id="title">LunarLander policy-temperature sweep</title>
<desc id="desc">Figura generata da dati sperimentali versionati nella cartella results.</desc>
<rect width="100%" height="100%" fill="#ffffff"/>
<style>text{font-family:Arial,sans-serif;fill:#182026;letter-spacing:0} .grid{stroke:#d8dee4;stroke-width:1} .axis{stroke:#59636e;stroke-width:1.2}</style>
<text x="490.0" y="32" text-anchor="middle" font-size="20" font-weight="700">LunarLander policy-temperature sweep</text>
<line class="grid" x1="82" y1="282.0" x2="938" y2="282.0"/>
<text x="72" y="286.0" text-anchor="end" font-size="12">-70</text>
<line class="grid" x1="82" y1="229.5" x2="938" y2="229.5"/>
<text x="72" y="233.5" text-anchor="end" font-size="12">5</text>
<line class="grid" x1="82" y1="177.0" x2="938" y2="177.0"/>
<text x="72" y="181.0" text-anchor="end" font-size="12">80</text>
<line class="grid" x1="82" y1="124.5" x2="938" y2="124.5"/>
<text x="72" y="128.5" text-anchor="end" font-size="12">155</text>
<line class="grid" x1="82" y1="72.0" x2="938" y2="72.0"/>
<text x="72" y="76.0" text-anchor="end" font-size="12">230</text>
<polyline points="82.0,130.4 167.6,118.7 253.2,107.2 296.0,125.9 338.8,119.4 381.6,114.5 424.4,132.1 467.2,134.8 510.0,113.7 595.6,124.1 681.2,120.5 809.6,150.2 938.0,139.4" fill="none" stroke="#176B87" stroke-width="3"/>
<line x1="82.0" y1="72.0" x2="82.0" y2="198.6" stroke="#176B87" stroke-width="1.5"/>
<circle cx="82.0" cy="130.4" r="4" fill="#176B87"/>
<line x1="167.6" y1="72.0" x2="167.6" y2="184.1" stroke="#176B87" stroke-width="1.5"/>
<circle cx="167.6" cy="118.7" r="4" fill="#176B87"/>
<line x1="253.2" y1="72.0" x2="253.2" y2="165.4" stroke="#176B87" stroke-width="1.5"/>
<circle cx="253.2" cy="107.2" r="4" fill="#176B87"/>
<line x1="296.0" y1="72.0" x2="296.0" y2="196.7" stroke="#176B87" stroke-width="1.5"/>
<circle cx="296.0" cy="125.9" r="4" fill="#176B87"/>
<line x1="338.8" y1="72.0" x2="338.8" y2="183.5" stroke="#176B87" stroke-width="1.5"/>
<circle cx="338.8" cy="119.4" r="4" fill="#176B87"/>
<line x1="381.6" y1="72.0" x2="381.6" y2="179.2" stroke="#176B87" stroke-width="1.5"/>
<circle cx="381.6" cy="114.5" r="4" fill="#176B87"/>
<line x1="424.4" y1="72.0" x2="424.4" y2="203.4" stroke="#176B87" stroke-width="1.5"/>
<circle cx="424.4" cy="132.1" r="4" fill="#176B87"/>
<line x1="467.2" y1="72.0" x2="467.2" y2="209.6" stroke="#176B87" stroke-width="1.5"/>
<circle cx="467.2" cy="134.8" r="4" fill="#176B87"/>
<line x1="510.0" y1="72.0" x2="510.0" y2="181.8" stroke="#176B87" stroke-width="1.5"/>
<circle cx="510.0" cy="113.7" r="4" fill="#176B87"/>
<line x1="595.6" y1="72.0" x2="595.6" y2="193.9" stroke="#176B87" stroke-width="1.5"/>
<circle cx="595.6" cy="124.1" r="4" fill="#176B87"/>
<line x1="681.2" y1="72.0" x2="681.2" y2="196.1" stroke="#176B87" stroke-width="1.5"/>
<circle cx="681.2" cy="120.5" r="4" fill="#176B87"/>
<line x1="809.6" y1="72.0" x2="809.6" y2="229.6" stroke="#176B87" stroke-width="1.5"/>
<circle cx="809.6" cy="150.2" r="4" fill="#176B87"/>
<line x1="938.0" y1="72.0" x2="938.0" y2="218.8" stroke="#176B87" stroke-width="1.5"/>
<circle cx="938.0" cy="139.4" r="4" fill="#176B87"/>
<text x="18" y="177" text-anchor="middle" font-size="14" transform="rotate(-90 18 177)">Average return (mean +/- SD)</text>
<line class="grid" x1="82" y1="490.0" x2="938" y2="490.0"/>
<text x="72" y="494.0" text-anchor="end" font-size="12">0</text>
<line class="grid" x1="82" y1="452.5" x2="938" y2="452.5"/>
<text x="72" y="456.5" text-anchor="end" font-size="12">25</text>
<line class="grid" x1="82" y1="415.0" x2="938" y2="415.0"/>
<text x="72" y="419.0" text-anchor="end" font-size="12">50</text>
<line class="grid" x1="82" y1="377.5" x2="938" y2="377.5"/>
<text x="72" y="381.5" text-anchor="end" font-size="12">75</text>
<line class="grid" x1="82" y1="340.0" x2="938" y2="340.0"/>
<text x="72" y="344.0" text-anchor="end" font-size="12">100</text>
<polyline points="82.0,436.0 167.6,434.5 253.2,419.5 296.0,431.5 338.8,422.5 381.6,410.5 424.4,431.5 467.2,421.0 510.0,401.5 595.6,416.5 681.2,398.5 809.6,427.0 938.0,421.0" fill="none" stroke="#D1495B" stroke-width="3"/>
<circle cx="82.0" cy="436.0" r="4" fill="#D1495B"/>
<circle cx="167.6" cy="434.5" r="4" fill="#D1495B"/>
<circle cx="253.2" cy="419.5" r="4" fill="#D1495B"/>
<circle cx="296.0" cy="431.5" r="4" fill="#D1495B"/>
<circle cx="338.8" cy="422.5" r="4" fill="#D1495B"/>
<circle cx="381.6" cy="410.5" r="4" fill="#D1495B"/>
<circle cx="424.4" cy="431.5" r="4" fill="#D1495B"/>
<circle cx="467.2" cy="421.0" r="4" fill="#D1495B"/>
<circle cx="510.0" cy="401.5" r="4" fill="#D1495B"/>
<circle cx="595.6" cy="416.5" r="4" fill="#D1495B"/>
<circle cx="681.2" cy="398.5" r="4" fill="#D1495B"/>
<circle cx="809.6" cy="427.0" r="4" fill="#D1495B"/>
<circle cx="938.0" cy="421.0" r="4" fill="#D1495B"/>
<text x="82.0" y="512" text-anchor="middle" font-size="11">0.25</text>
<text x="167.6" y="512" text-anchor="middle" font-size="11">0.35</text>
<text x="253.2" y="512" text-anchor="middle" font-size="11">0.45</text>
<text x="296.0" y="512" text-anchor="middle" font-size="11">0.50</text>
<text x="338.8" y="512" text-anchor="middle" font-size="11">0.55</text>
<text x="381.6" y="512" text-anchor="middle" font-size="11">0.60</text>
<text x="424.4" y="512" text-anchor="middle" font-size="11">0.65</text>
<text x="467.2" y="512" text-anchor="middle" font-size="11">0.70</text>
<text x="510.0" y="512" text-anchor="middle" font-size="11">0.75</text>
<text x="595.6" y="512" text-anchor="middle" font-size="11">0.85</text>
<text x="681.2" y="512" text-anchor="middle" font-size="11">0.95</text>
<text x="809.6" y="512" text-anchor="middle" font-size="11">1.10</text>
<text x="938.0" y="512" text-anchor="middle" font-size="11">1.25</text>
<text x="18" y="415" text-anchor="middle" font-size="14" transform="rotate(-90 18 415)">Success rate (%)</text>
<text x="510.0" y="548" text-anchor="middle" font-size="14">Sampling temperature</text>
<text x="490" y="578" text-anchor="middle" font-size="12">Selected checkpoint; 100 episodes per temperature; error bars show one standard deviation.</text>
</svg>
