<svg xmlns="http://www.w3.org/2000/svg" width="980" height="485" viewBox="0 0 980 485" role="img" aria-labelledby="title desc">
<title id="title">LunarLander action frequencies</title>
<desc id="desc">Figura generata da dati sperimentali versionati nella cartella results.</desc>
<rect width="100%" height="100%" fill="#ffffff"/>
<style>text{font-family:Arial,sans-serif;fill:#182026;letter-spacing:0} .grid{stroke:#d8dee4;stroke-width:1} .axis{stroke:#59636e;stroke-width:1.2}</style>
<text x="490.0" y="32" text-anchor="middle" font-size="20" font-weight="700">LunarLander action frequencies</text>
<line class="grid" x1="330.0" y1="65" x2="330.0" y2="417"/>
<text x="330.0" y="439" text-anchor="middle" font-size="12">0.00</text>
<line class="grid" x1="449.0" y1="65" x2="449.0" y2="417"/>
<text x="449.0" y="439" text-anchor="middle" font-size="12">0.13</text>
<line class="grid" x1="568.0" y1="65" x2="568.0" y2="417"/>
<text x="568.0" y="439" text-anchor="middle" font-size="12">0.26</text>
<line class="grid" x1="687.0" y1="65" x2="687.0" y2="417"/>
<text x="687.0" y="439" text-anchor="middle" font-size="12">0.39</text>
<line class="grid" x1="806.0" y1="65" x2="806.0" y2="417"/>
<text x="806.0" y="439" text-anchor="middle" font-size="12">0.52</text>
<line class="grid" x1="925.0" y1="65" x2="925.0" y2="417"/>
<text x="925.0" y="439" text-anchor="middle" font-size="12">0.65</text>
<text x="318" y="91" text-anchor="end" font-size="13">No-op - full episode</text>
<rect x="330" y="73" width="169.7" height="25" rx="3" fill="#176B87"/>
<text x="507.7" y="91" font-size="13" font-weight="700">0.1854</text>
<text x="318" y="135" text-anchor="end" font-size="13">Left engine - full episode</text>
<rect x="330" y="117" width="164.6" height="25" rx="3" fill="#D1495B"/>
<text x="502.6" y="135" font-size="13" font-weight="700">0.1798</text>
<text x="318" y="179" text-anchor="end" font-size="13">Main engine - full episode</text>
<rect x="330" y="161" width="428.6" height="25" rx="3" fill="#2E7D32"/>
<text x="766.6" y="179" font-size="13" font-weight="700">0.4682</text>
<text x="318" y="223" text-anchor="end" font-size="13">Right engine - full episode</text>
<rect x="330" y="205" width="152.5" height="25" rx="3" fill="#7A5195"/>
<text x="490.5" y="223" font-size="13" font-weight="700">0.1666</text>
<text x="318" y="267" text-anchor="end" font-size="13">No-op - last quarter</text>
<rect x="330" y="249" width="493.5" height="25" rx="3" fill="#E07A1F"/>
<text x="831.5" y="267" font-size="13" font-weight="700">0.5392</text>
<text x="318" y="311" text-anchor="end" font-size="13">Left engine - last quarter</text>
<rect x="330" y="293" width="121.9" height="25" rx="3" fill="#536878"/>
<text x="459.9" y="311" font-size="13" font-weight="700">0.1331</text>
<text x="318" y="355" text-anchor="end" font-size="13">Main engine - last quarter</text>
<rect x="330" y="337" width="211.3" height="25" rx="3" fill="#176B87"/>
<text x="549.3" y="355" font-size="13" font-weight="700">0.2308</text>
<text x="318" y="399" text-anchor="end" font-size="13">Right engine - last quarter</text>
<rect x="330" y="381" width="88.7" height="25" rx="3" fill="#D1495B"/>
<text x="426.7" y="399" font-size="13" font-weight="700">0.0969</text>
<line class="axis" x1="330" y1="417" x2="925" y2="417"/>
<text x="627.5" y="470" text-anchor="middle" font-size="14">Action frequency</text>
</svg>
