<svg xmlns="http://www.w3.org/2000/svg" width="980" height="602" viewBox="0 0 980 602">
<rect width="100%" height="100%" fill="#ffffff"/>
<text x="30" y="38" font-family="Arial" font-size="24" font-weight="700" fill="#111827">DLA 3 - temperature sweep</text>
<text x="30" y="94" font-family="Arial" font-size="15" fill="#111827">T=0.5</text>
<rect x="330" y="78" width="540" height="24" rx="3" fill="#e5e7eb"/>
<rect x="330" y="78" width="382.0" height="24" rx="3" fill="#2563eb"/>
<text x="885" y="95" font-family="Arial" font-size="15" fill="#111827">70.7</text>
<text x="30" y="136" font-family="Arial" font-size="15" fill="#111827">T=0.65</text>
<rect x="330" y="120" width="540" height="24" rx="3" fill="#e5e7eb"/>
<rect x="330" y="120" width="374.2" height="24" rx="3" fill="#2563eb"/>
<text x="885" y="137" font-family="Arial" font-size="15" fill="#111827">69.3</text>
<text x="30" y="178" font-family="Arial" font-size="15" fill="#111827">T=0.75</text>
<rect x="330" y="162" width="540" height="24" rx="3" fill="#e5e7eb"/>
<rect x="330" y="162" width="469.8" height="24" rx="3" fill="#2563eb"/>
<text x="885" y="179" font-family="Arial" font-size="15" fill="#111827">87.0</text>
<text x="30" y="220" font-family="Arial" font-size="15" fill="#111827">T=0.8</text>
<rect x="330" y="204" width="540" height="24" rx="3" fill="#e5e7eb"/>
<rect x="330" y="204" width="453.9" height="24" rx="3" fill="#2563eb"/>
<text x="885" y="221" font-family="Arial" font-size="15" fill="#111827">84.1</text>
<text x="30" y="262" font-family="Arial" font-size="15" fill="#111827">T=0.85</text>
<rect x="330" y="246" width="540" height="24" rx="3" fill="#e5e7eb"/>
<rect x="330" y="246" width="402.7" height="24" rx="3" fill="#2563eb"/>
<text x="885" y="263" font-family="Arial" font-size="15" fill="#111827">74.6</text>
<text x="30" y="304" font-family="Arial" font-size="15" fill="#111827">T=0.9</text>
<rect x="330" y="288" width="540" height="24" rx="3" fill="#e5e7eb"/>
<rect x="330" y="288" width="370.3" height="24" rx="3" fill="#2563eb"/>
<text x="885" y="305" font-family="Arial" font-size="15" fill="#111827">68.6</text>
<text x="30" y="346" font-family="Arial" font-size="15" fill="#111827">T=0.95</text>
<rect x="330" y="330" width="540" height="24" rx="3" fill="#e5e7eb"/>
<rect x="330" y="330" width="403.5" height="24" rx="3" fill="#2563eb"/>
<text x="885" y="347" font-family="Arial" font-size="15" fill="#111827">74.7</text>
<text x="30" y="388" font-family="Arial" font-size="15" fill="#111827">T=1.0</text>
<rect x="330" y="372" width="540" height="24" rx="3" fill="#e5e7eb"/>
<rect x="330" y="372" width="279.0" height="24" rx="3" fill="#2563eb"/>
<text x="885" y="389" font-family="Arial" font-size="15" fill="#111827">51.7</text>
<text x="30" y="430" font-family="Arial" font-size="15" fill="#111827">T=1.05</text>
<rect x="330" y="414" width="540" height="24" rx="3" fill="#e5e7eb"/>
<rect x="330" y="414" width="479.5" height="24" rx="3" fill="#2563eb"/>
<text x="885" y="431" font-family="Arial" font-size="15" fill="#111827">88.8</text>
<text x="30" y="472" font-family="Arial" font-size="15" fill="#111827">T=1.1</text>
<rect x="330" y="456" width="540" height="24" rx="3" fill="#e5e7eb"/>
<rect x="330" y="456" width="326.0" height="24" rx="3" fill="#2563eb"/>
<text x="885" y="473" font-family="Arial" font-size="15" fill="#111827">60.4</text>
<text x="30" y="514" font-family="Arial" font-size="15" fill="#111827">T=1.25</text>
<rect x="330" y="498" width="540" height="24" rx="3" fill="#e5e7eb"/>
<rect x="330" y="498" width="493.9" height="24" rx="3" fill="#2563eb"/>
<text x="885" y="515" font-family="Arial" font-size="15" fill="#111827">91.5</text>
<text x="330" y="577" font-family="Arial" font-size="13" fill="#4b5563">Average return by inference temperature</text>
</svg>