<svg xmlns="http://www.w3.org/2000/svg" width="980" height="309" viewBox="0 0 980 309" role="img" aria-labelledby="title desc">
<title id="title">Accuracy di test GTSRB</title>
<desc id="desc">Figura generata da dati sperimentali versionati nella cartella results.</desc>
<rect width="100%" height="100%" fill="#ffffff"/>
<style>text{font-family:Arial,sans-serif;fill:#182026;letter-spacing:0} .grid{stroke:#d8dee4;stroke-width:1} .axis{stroke:#59636e;stroke-width:1.2}</style>
<text x="490.0" y="32" text-anchor="middle" font-size="20" font-weight="700">Accuracy di test GTSRB</text>
<line class="grid" x1="330.0" y1="65" x2="330.0" y2="241"/>
<text x="330.0" y="263" text-anchor="middle" font-size="12">0.00</text>
<line class="grid" x1="449.0" y1="65" x2="449.0" y2="241"/>
<text x="449.0" y="263" text-anchor="middle" font-size="12">0.20</text>
<line class="grid" x1="568.0" y1="65" x2="568.0" y2="241"/>
<text x="568.0" y="263" text-anchor="middle" font-size="12">0.40</text>
<line class="grid" x1="687.0" y1="65" x2="687.0" y2="241"/>
<text x="687.0" y="263" text-anchor="middle" font-size="12">0.60</text>
<line class="grid" x1="806.0" y1="65" x2="806.0" y2="241"/>
<text x="806.0" y="263" text-anchor="middle" font-size="12">0.80</text>
<line class="grid" x1="925.0" y1="65" x2="925.0" y2="241"/>
<text x="925.0" y="263" text-anchor="middle" font-size="12">1.00</text>
<text x="318" y="91" text-anchor="end" font-size="13">Feature ResNet-18 + SVM</text>
<rect x="330" y="73" width="381.5" height="25" rx="3" fill="#176B87"/>
<text x="719.5" y="91" font-size="13" font-weight="700">0.6412</text>
<text x="318" y="135" text-anchor="end" font-size="13">Fine-tuning ResNet-18 della sola testa</text>
<rect x="330" y="117" width="299.8" height="25" rx="3" fill="#D1495B"/>
<text x="637.8" y="135" font-size="13" font-weight="700">0.5038</text>
<text x="318" y="179" text-anchor="end" font-size="13">Fine-tuning ResNet-18 migliorato</text>
<rect x="330" y="161" width="477.5" height="25" rx="3" fill="#2E7D32"/>
<text x="815.5" y="179" font-size="13" font-weight="700">0.8025</text>
<text x="318" y="223" text-anchor="end" font-size="13">Classificatore del centroide più vicino</text>
<rect x="330" y="205" width="249.0" height="25" rx="3" fill="#7A5195"/>
<text x="587.0" y="223" font-size="13" font-weight="700">0.4185</text>
<line class="axis" x1="330" y1="241" x2="925" y2="241"/>
<text x="627.5" y="294" text-anchor="middle" font-size="14">Accuracy</text>
</svg>
