<svg xmlns="http://www.w3.org/2000/svg" width="980" height="529" viewBox="0 0 980 529" role="img" aria-labelledby="title desc">
<title id="title">Best validation accuracy across saved runs</title>
<desc id="desc">Figura generata da dati sperimentali versionati nella cartella results.</desc>
<rect width="100%" height="100%" fill="#ffffff"/>
<style>text{font-family:Arial,sans-serif;fill:#182026;letter-spacing:0} .grid{stroke:#d8dee4;stroke-width:1} .axis{stroke:#59636e;stroke-width:1.2}</style>
<text x="490.0" y="32" text-anchor="middle" font-size="20" font-weight="700">Best validation accuracy across saved runs</text>
<line class="grid" x1="330.0" y1="65" x2="330.0" y2="461"/>
<text x="330.0" y="483" text-anchor="middle" font-size="12">0.00</text>
<line class="grid" x1="449.0" y1="65" x2="449.0" y2="461"/>
<text x="449.0" y="483" text-anchor="middle" font-size="12">0.20</text>
<line class="grid" x1="568.0" y1="65" x2="568.0" y2="461"/>
<text x="568.0" y="483" text-anchor="middle" font-size="12">0.40</text>
<line class="grid" x1="687.0" y1="65" x2="687.0" y2="461"/>
<text x="687.0" y="483" text-anchor="middle" font-size="12">0.60</text>
<line class="grid" x1="806.0" y1="65" x2="806.0" y2="461"/>
<text x="806.0" y="483" text-anchor="middle" font-size="12">0.80</text>
<line class="grid" x1="925.0" y1="65" x2="925.0" y2="461"/>
<text x="925.0" y="483" text-anchor="middle" font-size="12">1.00</text>
<text x="318" y="91" text-anchor="end" font-size="13">ex1_3_head_only_adam_ce</text>
<rect x="330" y="73" width="277.7" height="25" rx="3" fill="#176B87"/>
<text x="615.7" y="91" font-size="13" font-weight="700">0.4667</text>
<text x="318" y="135" text-anchor="end" font-size="13">head_only_aggressive_aug</text>
<rect x="330" y="117" width="261.0" height="25" rx="3" fill="#D1495B"/>
<text x="599.0" y="135" font-size="13" font-weight="700">0.4387</text>
<text x="318" y="179" text-anchor="end" font-size="13">layer4_aggressive_aug</text>
<rect x="330" y="161" width="442.3" height="25" rx="3" fill="#2E7D32"/>
<text x="780.3" y="179" font-size="13" font-weight="700">0.7433</text>
<text x="318" y="223" text-anchor="end" font-size="13">layer4_conservative_aug</text>
<rect x="330" y="205" width="448.7" height="25" rx="3" fill="#7A5195"/>
<text x="786.7" y="223" font-size="13" font-weight="700">0.7541</text>
<text x="318" y="267" text-anchor="end" font-size="13">layer4_conservative_ls005</text>
<rect x="330" y="249" width="457.4" height="25" rx="3" fill="#E07A1F"/>
<text x="795.4" y="267" font-size="13" font-weight="700">0.7687</text>
<text x="318" y="311" text-anchor="end" font-size="13">layer4_no_aug_lr1e4_wd05</text>
<rect x="330" y="293" width="413.3" height="25" rx="3" fill="#536878"/>
<text x="751.3" y="311" font-size="13" font-weight="700">0.6947</text>
<text x="318" y="355" text-anchor="end" font-size="13">layer4_safe_aug_ls005_discriminative</text>
<rect x="330" y="337" width="434.7" height="25" rx="3" fill="#176B87"/>
<text x="772.7" y="355" font-size="13" font-weight="700">0.7306</text>
<text x="318" y="399" text-anchor="end" font-size="13">layer4_spatial_aug</text>
<rect x="330" y="381" width="421.8" height="25" rx="3" fill="#D1495B"/>
<text x="759.8" y="399" font-size="13" font-weight="700">0.7089</text>
<text x="318" y="443" text-anchor="end" font-size="13">layer4_unfrozen</text>
<rect x="330" y="425" width="451.3" height="25" rx="3" fill="#2E7D32"/>
<text x="789.3" y="443" font-size="13" font-weight="700">0.7584</text>
<line class="axis" x1="330" y1="461" x2="925" y2="461"/>
<text x="627.5" y="514" text-anchor="middle" font-size="14">Validation accuracy</text>
</svg>
