<svg xmlns="http://www.w3.org/2000/svg" width="980" height="520" viewBox="0 0 980 520" role="img" aria-labelledby="title desc">
<title id="title">Validation accuracy during fine-tuning</title>
<desc id="desc">Figura generata da dati sperimentali versionati nella cartella results.</desc>
<rect width="100%" height="100%" fill="#ffffff"/>
<style>text{font-family:Arial,sans-serif;fill:#182026;letter-spacing:0} .grid{stroke:#d8dee4;stroke-width:1} .axis{stroke:#59636e;stroke-width:1.2}</style>
<text x="490.0" y="32" text-anchor="middle" font-size="20" font-weight="700">Validation accuracy during fine-tuning</text>
<line class="grid" x1="82" y1="448.0" x2="940" y2="448.0"/>
<text x="72" y="452.0" text-anchor="end" font-size="12">0.35</text>
<line class="grid" x1="82" y1="371.4" x2="940" y2="371.4"/>
<text x="72" y="375.4" text-anchor="end" font-size="12">0.44</text>
<line class="grid" x1="82" y1="294.8" x2="940" y2="294.8"/>
<text x="72" y="298.8" text-anchor="end" font-size="12">0.54</text>
<line class="grid" x1="82" y1="218.2" x2="940" y2="218.2"/>
<text x="72" y="222.2" text-anchor="end" font-size="12">0.63</text>
<line class="grid" x1="82" y1="141.6" x2="940" y2="141.6"/>
<text x="72" y="145.6" text-anchor="end" font-size="12">0.73</text>
<line class="grid" x1="82" y1="65.0" x2="940" y2="65.0"/>
<text x="72" y="69.0" text-anchor="end" font-size="12">0.82</text>
<text x="82.0" y="470" text-anchor="middle" font-size="12">1</text>
<text x="253.6" y="470" text-anchor="middle" font-size="12">4.8</text>
<text x="425.2" y="470" text-anchor="middle" font-size="12">8.6</text>
<text x="596.8" y="470" text-anchor="middle" font-size="12">12.4</text>
<text x="768.4" y="470" text-anchor="middle" font-size="12">16.2</text>
<text x="940.0" y="470" text-anchor="middle" font-size="12">20</text>
<polyline points="82.0,182.0 127.2,152.8 172.3,159.1 217.5,143.2 262.6,130.7 307.8,123.0 352.9,126.2 398.1,118.4 443.3,115.0 488.4,114.2 533.6,111.7 578.7,116.2 623.9,110.3 669.1,107.5 714.2,108.0 759.4,109.9 804.5,108.7 849.7,115.2 894.8,108.7 940.0,106.8" fill="none" stroke="#176B87" stroke-width="3" stroke-linejoin="round"/>
<circle cx="82.0" cy="182.0" r="3.5" fill="#176B87"/>
<circle cx="127.2" cy="152.8" r="3.5" fill="#176B87"/>
<circle cx="172.3" cy="159.1" r="3.5" fill="#176B87"/>
<circle cx="217.5" cy="143.2" r="3.5" fill="#176B87"/>
<circle cx="262.6" cy="130.7" r="3.5" fill="#176B87"/>
<circle cx="307.8" cy="123.0" r="3.5" fill="#176B87"/>
<circle cx="352.9" cy="126.2" r="3.5" fill="#176B87"/>
<circle cx="398.1" cy="118.4" r="3.5" fill="#176B87"/>
<circle cx="443.3" cy="115.0" r="3.5" fill="#176B87"/>
<circle cx="488.4" cy="114.2" r="3.5" fill="#176B87"/>
<circle cx="533.6" cy="111.7" r="3.5" fill="#176B87"/>
<circle cx="578.7" cy="116.2" r="3.5" fill="#176B87"/>
<circle cx="623.9" cy="110.3" r="3.5" fill="#176B87"/>
<circle cx="669.1" cy="107.5" r="3.5" fill="#176B87"/>
<circle cx="714.2" cy="108.0" r="3.5" fill="#176B87"/>
<circle cx="759.4" cy="109.9" r="3.5" fill="#176B87"/>
<circle cx="804.5" cy="108.7" r="3.5" fill="#176B87"/>
<circle cx="849.7" cy="115.2" r="3.5" fill="#176B87"/>
<circle cx="894.8" cy="108.7" r="3.5" fill="#176B87"/>
<circle cx="940.0" cy="106.8" r="3.5" fill="#176B87"/>
<polyline points="82.0,403.2 127.2,367.9 172.3,361.5 217.5,364.6 262.6,357.7 307.8,352.9 352.9,356.3 398.1,354.5 443.3,353.9 488.4,353.9" fill="none" stroke="#D1495B" stroke-width="3" stroke-linejoin="round"/>
<circle cx="82.0" cy="403.2" r="3.5" fill="#D1495B"/>
<circle cx="127.2" cy="367.9" r="3.5" fill="#D1495B"/>
<circle cx="172.3" cy="361.5" r="3.5" fill="#D1495B"/>
<circle cx="217.5" cy="364.6" r="3.5" fill="#D1495B"/>
<circle cx="262.6" cy="357.7" r="3.5" fill="#D1495B"/>
<circle cx="307.8" cy="352.9" r="3.5" fill="#D1495B"/>
<circle cx="352.9" cy="356.3" r="3.5" fill="#D1495B"/>
<circle cx="398.1" cy="354.5" r="3.5" fill="#D1495B"/>
<circle cx="443.3" cy="353.9" r="3.5" fill="#D1495B"/>
<circle cx="488.4" cy="353.9" r="3.5" fill="#D1495B"/>
<line x1="82" y1="47" x2="106" y2="47" stroke="#176B87" stroke-width="4"/>
<text x="113" y="52" font-size="13">Improved fine-tuning</text>
<line x1="327" y1="47" x2="351" y2="47" stroke="#D1495B" stroke-width="4"/>
<text x="358" y="52" font-size="13">Head-only baseline</text>
<line class="axis" x1="82" y1="448" x2="940" y2="448"/>
<line class="axis" x1="82" y1="65" x2="82" y2="448"/>
<text x="511.0" y="504" text-anchor="middle" font-size="14">Epoch</text>
<text x="18" y="256.5" text-anchor="middle" font-size="14" transform="rotate(-90 18 256.5)">Validation accuracy</text>
</svg>
