<svg xmlns="http://www.w3.org/2000/svg" width="980" height="353" viewBox="0 0 980 353" role="img" aria-labelledby="title desc">
<title id="title">GTSRB cosine-retrieval metrics</title>
<desc id="desc">Figura generata da dati sperimentali versionati nella cartella results.</desc>
<rect width="100%" height="100%" fill="#ffffff"/>
<style>text{font-family:Arial,sans-serif;fill:#182026;letter-spacing:0} .grid{stroke:#d8dee4;stroke-width:1} .axis{stroke:#59636e;stroke-width:1.2}</style>
<text x="490.0" y="32" text-anchor="middle" font-size="20" font-weight="700">GTSRB cosine-retrieval metrics</text>
<line class="grid" x1="330.0" y1="65" x2="330.0" y2="285"/>
<text x="330.0" y="307" text-anchor="middle" font-size="12">0.00</text>
<line class="grid" x1="449.0" y1="65" x2="449.0" y2="285"/>
<text x="449.0" y="307" text-anchor="middle" font-size="12">0.11</text>
<line class="grid" x1="568.0" y1="65" x2="568.0" y2="285"/>
<text x="568.0" y="307" text-anchor="middle" font-size="12">0.22</text>
<line class="grid" x1="687.0" y1="65" x2="687.0" y2="285"/>
<text x="687.0" y="307" text-anchor="middle" font-size="12">0.33</text>
<line class="grid" x1="806.0" y1="65" x2="806.0" y2="285"/>
<text x="806.0" y="307" text-anchor="middle" font-size="12">0.44</text>
<line class="grid" x1="925.0" y1="65" x2="925.0" y2="285"/>
<text x="925.0" y="307" text-anchor="middle" font-size="12">0.55</text>
<text x="318" y="91" text-anchor="end" font-size="13">precision at 1</text>
<rect x="330" y="73" width="520.6" height="25" rx="3" fill="#176B87"/>
<text x="858.6" y="91" font-size="13" font-weight="700">0.4812</text>
<text x="318" y="135" text-anchor="end" font-size="13">precision at 5</text>
<rect x="330" y="117" width="497.0" height="25" rx="3" fill="#D1495B"/>
<text x="835.0" y="135" font-size="13" font-weight="700">0.4594</text>
<text x="318" y="179" text-anchor="end" font-size="13">precision at 10</text>
<rect x="330" y="161" width="475.3" height="25" rx="3" fill="#2E7D32"/>
<text x="813.3" y="179" font-size="13" font-weight="700">0.4394</text>
<text x="318" y="223" text-anchor="end" font-size="13">mean average precision</text>
<rect x="330" y="205" width="183.5" height="25" rx="3" fill="#7A5195"/>
<text x="521.5" y="223" font-size="13" font-weight="700">0.1696</text>
<text x="318" y="267" text-anchor="end" font-size="13">macro mean average precision</text>
<rect x="330" y="249" width="140.7" height="25" rx="3" fill="#E07A1F"/>
<text x="478.7" y="267" font-size="13" font-weight="700">0.1301</text>
<line class="axis" x1="330" y1="285" x2="925" y2="285"/>
<text x="627.5" y="338" text-anchor="middle" font-size="14">Metric value</text>
</svg>
