<svg xmlns="http://www.w3.org/2000/svg" width="980" height="397" viewBox="0 0 980 397" role="img" aria-labelledby="title desc">
<title id="title">Accuracy ImageNet-Sketch</title>
<desc id="desc">Figura generata da dati sperimentali versionati nella cartella results.</desc>
<rect width="100%" height="100%" fill="#ffffff"/>
<style>text{font-family:Arial,sans-serif;fill:#182026;letter-spacing:0} .grid{stroke:#d8dee4;stroke-width:1} .axis{stroke:#59636e;stroke-width:1.2}</style>
<text x="490.0" y="32" text-anchor="middle" font-size="20" font-weight="700">Accuracy ImageNet-Sketch</text>
<line class="grid" x1="330.0" y1="65" x2="330.0" y2="329"/>
<text x="330.0" y="351" text-anchor="middle" font-size="12">0.00</text>
<line class="grid" x1="449.0" y1="65" x2="449.0" y2="329"/>
<text x="449.0" y="351" text-anchor="middle" font-size="12">0.12</text>
<line class="grid" x1="568.0" y1="65" x2="568.0" y2="329"/>
<text x="568.0" y="351" text-anchor="middle" font-size="12">0.24</text>
<line class="grid" x1="687.0" y1="65" x2="687.0" y2="329"/>
<text x="687.0" y="351" text-anchor="middle" font-size="12">0.36</text>
<line class="grid" x1="806.0" y1="65" x2="806.0" y2="329"/>
<text x="806.0" y="351" text-anchor="middle" font-size="12">0.48</text>
<line class="grid" x1="925.0" y1="65" x2="925.0" y2="329"/>
<text x="925.0" y="351" text-anchor="middle" font-size="12">0.60</text>
<text x="318" y="91" text-anchor="end" font-size="13">CLIP zero-shot</text>
<rect x="330" y="73" width="472.0" height="25" rx="3" fill="#176B87"/>
<text x="810.0" y="91" font-size="13" font-weight="700">0.4759</text>
<text x="318" y="135" text-anchor="end" font-size="13">CLIP zero-shot + insieme di prompt</text>
<rect x="330" y="117" width="474.9" height="25" rx="3" fill="#D1495B"/>
<text x="812.9" y="135" font-size="13" font-weight="700">0.4789</text>
<text x="318" y="179" text-anchor="end" font-size="13">CLIP-Adapter bottleneck 64</text>
<rect x="330" y="161" width="510.2" height="25" rx="3" fill="#2E7D32"/>
<text x="848.2" y="179" font-size="13" font-weight="700">0.5144</text>
<text x="318" y="223" text-anchor="end" font-size="13">CLIP-Adapter bottleneck 64 + prompt ensemble</text>
<rect x="330" y="205" width="502.5" height="25" rx="3" fill="#7A5195"/>
<text x="840.5" y="223" font-size="13" font-weight="700">0.5067</text>
<text x="318" y="267" text-anchor="end" font-size="13">CLIP-Adapter bottleneck 128</text>
<rect x="330" y="249" width="519.7" height="25" rx="3" fill="#E07A1F"/>
<text x="857.7" y="267" font-size="13" font-weight="700">0.5241</text>
<text x="318" y="311" text-anchor="end" font-size="13">CLIP-Adapter bottleneck 128 + prompt ensemble</text>
<rect x="330" y="293" width="514.9" height="25" rx="3" fill="#536878"/>
<text x="852.9" y="311" font-size="13" font-weight="700">0.5193</text>
<line class="axis" x1="330" y1="329" x2="925" y2="329"/>
<text x="627.5" y="382" text-anchor="middle" font-size="14">Accuracy</text>
</svg>
