<svg xmlns="http://www.w3.org/2000/svg" width="980" height="520" viewBox="0 0 980 520" role="img" aria-labelledby="title desc">
<title id="title">CLIP-Adapter training-loss tail</title>
<desc id="desc">Figura generata da dati sperimentali versionati nella cartella results.</desc>
<rect width="100%" height="100%" fill="#ffffff"/>
<style>text{font-family:Arial,sans-serif;fill:#182026;letter-spacing:0} .grid{stroke:#d8dee4;stroke-width:1} .axis{stroke:#59636e;stroke-width:1.2}</style>
<text x="490.0" y="32" text-anchor="middle" font-size="20" font-weight="700">CLIP-Adapter training-loss tail</text>
<line class="grid" x1="82" y1="448.0" x2="940" y2="448.0"/>
<text x="72" y="452.0" text-anchor="end" font-size="12">0.05</text>
<line class="grid" x1="82" y1="371.4" x2="940" y2="371.4"/>
<text x="72" y="375.4" text-anchor="end" font-size="12">0.11</text>
<line class="grid" x1="82" y1="294.8" x2="940" y2="294.8"/>
<text x="72" y="298.8" text-anchor="end" font-size="12">0.17</text>
<line class="grid" x1="82" y1="218.2" x2="940" y2="218.2"/>
<text x="72" y="222.2" text-anchor="end" font-size="12">0.22</text>
<line class="grid" x1="82" y1="141.6" x2="940" y2="141.6"/>
<text x="72" y="145.6" text-anchor="end" font-size="12">0.28</text>
<line class="grid" x1="82" y1="65.0" x2="940" y2="65.0"/>
<text x="72" y="69.0" text-anchor="end" font-size="12">0.34</text>
<text x="82.0" y="470" text-anchor="middle" font-size="12">26</text>
<text x="253.6" y="470" text-anchor="middle" font-size="12">26.8</text>
<text x="425.2" y="470" text-anchor="middle" font-size="12">27.6</text>
<text x="596.8" y="470" text-anchor="middle" font-size="12">28.4</text>
<text x="768.4" y="470" text-anchor="middle" font-size="12">29.2</text>
<text x="940.0" y="470" text-anchor="middle" font-size="12">30</text>
<polyline points="82.0,114.1 296.5,115.6 511.0,117.1 725.5,122.8 940.0,122.8" fill="none" stroke="#176B87" stroke-width="3" stroke-linejoin="round"/>
<circle cx="82.0" cy="114.1" r="3.5" fill="#176B87"/>
<circle cx="296.5" cy="115.6" r="3.5" fill="#176B87"/>
<circle cx="511.0" cy="117.1" r="3.5" fill="#176B87"/>
<circle cx="725.5" cy="122.8" r="3.5" fill="#176B87"/>
<circle cx="940.0" cy="122.8" r="3.5" fill="#176B87"/>
<polyline points="82.0,386.5 296.5,388.0 511.0,388.2 725.5,389.2 940.0,389.9" fill="none" stroke="#D1495B" stroke-width="3" stroke-linejoin="round"/>
<circle cx="82.0" cy="386.5" r="3.5" fill="#D1495B"/>
<circle cx="296.5" cy="388.0" r="3.5" fill="#D1495B"/>
<circle cx="511.0" cy="388.2" r="3.5" fill="#D1495B"/>
<circle cx="725.5" cy="389.2" r="3.5" fill="#D1495B"/>
<circle cx="940.0" cy="389.9" r="3.5" fill="#D1495B"/>
<line x1="82" y1="47" x2="106" y2="47" stroke="#176B87" stroke-width="4"/>
<text x="113" y="52" font-size="13">bottleneck 64 train</text>
<line x1="327" y1="47" x2="351" y2="47" stroke="#D1495B" stroke-width="4"/>
<text x="358" y="52" font-size="13">bottleneck 128 train</text>
<line class="axis" x1="82" y1="448" x2="940" y2="448"/>
<line class="axis" x1="82" y1="65" x2="82" y2="448"/>
<text x="511.0" y="504" text-anchor="middle" font-size="14">Epoch</text>
<text x="18" y="256.5" text-anchor="middle" font-size="14" transform="rotate(-90 18 256.5)">Training loss</text>
</svg>
